<svg xmlns="http://www.w3.org/2000/svg" viewBox="0 0 120 120" width="120" height="120">
  <!-- PLACEHOLDER — replace with the real Rainbow Bee-eater artwork (same filename). -->
  <circle cx="60" cy="60" r="56" fill="#E6F0F7"/>
  <g>
    <path d="M34 74 C30 60 40 44 60 42 C74 41 86 50 88 58 C80 56 72 58 66 64 C72 64 78 66 82 70 C70 70 50 74 44 84 C40 80 36 78 34 74 Z" fill="#6D8600"/>
    <path d="M44 64 C40 70 36 82 40 92 C46 84 52 80 58 80 C54 74 50 68 44 64 Z" fill="#007CBF"/>
    <circle cx="74" cy="50" r="13" fill="#06ABDF"/>
    <path d="M70 46 C72 42 80 40 84 42 C80 44 76 48 74 52 Z" fill="#EDD03E"/>
    <polygon points="86,49 104,52 86,55" fill="#1A1A1A"/>
    <circle cx="78" cy="49" r="2.6" fill="#1A1A1A"/>
  </g>
</svg>
