<svg xmlns="http://www.w3.org/2000/svg" width="512" height="512" viewBox="0 0 512 512">
  <defs>
    <linearGradient id="bg" x1="0" y1="0" x2="0" y2="1">
      <stop offset="0" stop-color="#1A73E8"/>
      <stop offset="1" stop-color="#0B57D0"/>
    </linearGradient>
    <filter id="sh" x="-20%" y="-20%" width="140%" height="140%">
      <feDropShadow dx="0" dy="6" stdDeviation="10" flood-color="#000" flood-opacity="0.18"/>
    </filter>
  </defs>
  <rect x="0" y="0" width="512" height="512" rx="115" ry="115" fill="url(#bg)"/>
  <g filter="url(#sh)">
    <rect x="116" y="150" width="280" height="250" rx="34" fill="#FFFFFF"/>
  </g>
  <rect x="150" y="186" width="180" height="22" rx="11" fill="#1A73E8"/>
  <circle cx="364" cy="197" r="13" fill="#F4C623"/>
  <rect x="150" y="250" width="30" height="30" rx="7" fill="#34A853"/><rect x="206" y="250" width="30" height="30" rx="7" fill="#C9D7F0"/><rect x="262" y="250" width="30" height="30" rx="7" fill="#C9D7F0"/><rect x="318" y="250" width="30" height="30" rx="7" fill="#C9D7F0"/><rect x="150" y="306" width="30" height="30" rx="7" fill="#C9D7F0"/><rect x="206" y="306" width="30" height="30" rx="7" fill="#C9D7F0"/><rect x="262" y="306" width="30" height="30" rx="7" fill="#34A853"/><rect x="318" y="306" width="30" height="30" rx="7" fill="#C9D7F0"/><rect x="150" y="362" width="30" height="30" rx="7" fill="#C9D7F0"/><rect x="206" y="362" width="30" height="30" rx="7" fill="#34A853"/><rect x="262" y="362" width="30" height="30" rx="7" fill="#C9D7F0"/><rect x="318" y="362" width="30" height="30" rx="7" fill="#34A853"/>
</svg>